<svg width="24" height="24" viewBox="0 0 24 24" fill="none" xmlns="http://www.w3.org/2000/svg">
<path d="M22.0001 12.0002C22.0001 12.5532 21.5531 13.0002 21.0001 13.0002H5.4141L10.7071 18.2931C11.0981 18.6841 11.0981 19.3162 10.7071 19.7072C10.5121 19.9022 10.2561 20.0002 10.0001 20.0002C9.7441 20.0002 9.48813 19.9022 9.29313 19.7072L2.29313 12.7072C1.90213 12.3162 1.90213 11.6841 2.29313 11.2931L9.29313 4.29313C9.68413 3.90213 10.3161 3.90213 10.7071 4.29313C11.0981 4.68413 11.0981 5.31619 10.7071 5.70719L5.4141 11.0002H21.0001C21.5531 11.0002 22.0001 11.4472 22.0001 12.0002Z" fill="#41416E"/>
</svg>
