<svg width="20" height="20" viewBox="0 0 20 20" fill="none" xmlns="http://www.w3.org/2000/svg">
<path d="M10 0.5C4.76 0.5 0.5 4.76 0.5 10C0.5 15.24 4.76 19.5 10 19.5C15.24 19.5 19.5 15.24 19.5 10C19.5 4.76 15.24 0.5 10 0.5ZM13.71 11.71C13.51 11.9 13.26 12 13 12C12.74 12 12.49 11.9 12.29 11.71L10 9.40991L7.71002 11.71C7.32002 12.1 6.67998 12.1 6.28998 11.71C5.89998 11.32 5.89998 10.68 6.28998 10.29L9.28998 7.29004C9.67998 6.90004 10.32 6.90004 10.71 7.29004L13.71 10.29C14.1 10.68 14.1 11.32 13.71 11.71Z" fill="white"/>
</svg>
